REM DIRINDEX 1\2,1\3,1\4,1\5,1\6,1\7,1\8
REM DIRNAME cjc150,folder01,folder02,folder03,folder04,folder05,folder06,folder07
TITLE ""
FILE "001 でる文71.mp3" MP3
  TRACK 01 AUDIO
    TITLE "8:cjc150_3399"
    INDEX 01 00:00:00
  TRACK 02 AUDIO
    TITLE "0:"
    INDEX 01 00:01:68
  TRACK 03 AUDIO
    TITLE "8:cjc150_3400"
    INDEX 01 00:02:28
  TRACK 04 AUDIO
    TITLE "0:"
    INDEX 01 00:04:19
  TRACK 05 AUDIO
    TITLE "2:cjc150_3401"
    INDEX 01 00:05:16
  TRACK 06 AUDIO
    TITLE "0:"
    INDEX 01 00:12:63
  TRACK 07 AUDIO
    TITLE "8:cjc150_3402"
    INDEX 01 00:14:25
  TRACK 08 AUDIO
    TITLE "0:"
    INDEX 01 00:17:02
  TRACK 09 AUDIO
    TITLE "3:cjc150_3403"
    INDEX 01 00:17:69
  TRACK 10 AUDIO
    TITLE "3:cjc150_3404"
    INDEX 01 00:20:00
  TRACK 11 AUDIO
    TITLE "3:cjc150_3405"
    INDEX 01 00:22:09
  TRACK 12 AUDIO
    TITLE "3:cjc150_3406"
    INDEX 01 00:23:65
  TRACK 13 AUDIO
    TITLE "3:cjc150_3407"
    INDEX 01 00:25:45
  TRACK 14 AUDIO
    TITLE "3:cjc150_3408"
    INDEX 01 00:27:20
  TRACK 15 AUDIO
    TITLE "3:cjc150_3409"
    INDEX 01 00:28:60
  TRACK 16 AUDIO
    TITLE "3:cjc150_3410"
    INDEX 01 00:31:33
  TRACK 17 AUDIO
    TITLE "3:cjc150_3411"
    INDEX 01 00:34:08
  TRACK 18 AUDIO
    TITLE "3:cjc150_3412"
    INDEX 01 00:36:17
  TRACK 19 AUDIO
    TITLE "8:cjc150_3413"
    INDEX 01 00:38:31
  TRACK 20 AUDIO
    TITLE "0:"
    INDEX 01 00:41:06
  TRACK 21 AUDIO
    TITLE "4:cjc150_3414"
    INDEX 01 00:41:65
  TRACK 22 AUDIO
    TITLE "4:cjc150_3415"
    INDEX 01 00:45:00
  TRACK 23 AUDIO
    TITLE "4:cjc150_3416"
    INDEX 01 00:48:42
  TRACK 24 AUDIO
    TITLE "4:cjc150_3417"
    INDEX 01 00:52:12
  TRACK 25 AUDIO
    TITLE "4:cjc150_3418"
    INDEX 01 00:56:24
  TRACK 26 AUDIO
    TITLE "4:cjc150_3419"
    INDEX 01 00:58:32
  TRACK 27 AUDIO
    TITLE "8:cjc150_3420"
    INDEX 01 01:01:13
  TRACK 28 AUDIO
    TITLE "0:"
    INDEX 01 01:04:07
  TRACK 29 AUDIO
    TITLE "5:cjc150_3421"
    INDEX 01 01:04:66
  TRACK 30 AUDIO
    TITLE "5:cjc150_3422"
    INDEX 01 01:07:59
  TRACK 31 AUDIO
    TITLE "5:cjc150_3423"
    INDEX 01 01:10:55
  TRACK 32 AUDIO
    TITLE "5:cjc150_3424"
    INDEX 01 01:12:64
  TRACK 33 AUDIO
    TITLE "5:cjc150_3425"
    INDEX 01 01:14:65
  TRACK 34 AUDIO
    TITLE "5:cjc150_3426"
    INDEX 01 01:16:09
  TRACK 35 AUDIO
    TITLE "5:cjc150_3427"
    INDEX 01 01:18:49
  TRACK 36 AUDIO
    TITLE "5:cjc150_3428"
    INDEX 01 01:20:30
  TRACK 37 AUDIO
    TITLE "5:cjc150_3429"
    INDEX 01 01:22:03
  TRACK 38 AUDIO
    TITLE "5:cjc150_3430"
    INDEX 01 01:23:71
  TRACK 39 AUDIO
    TITLE "5:cjc150_3431"
    INDEX 01 01:26:29
  TRACK 40 AUDIO
    TITLE "5:cjc150_3432"
    INDEX 01 01:28:04
  TRACK 41 AUDIO
    TITLE "5:cjc150_3433"
    INDEX 01 01:29:45
  TRACK 42 AUDIO
    TITLE "5:cjc150_3434"
    INDEX 01 01:31:57
  TRACK 43 AUDIO
    TITLE "5:cjc150_3435"
    INDEX 01 01:35:14
  TRACK 44 AUDIO
    TITLE "5:cjc150_3436"
    INDEX 01 01:37:62
  TRACK 45 AUDIO
    TITLE "5:cjc150_3437"
    INDEX 01 01:40:33
  TRACK 46 AUDIO
    TITLE "5:cjc150_3438"
    INDEX 01 01:42:20
  TRACK 47 AUDIO
    TITLE "5:cjc150_3439"
    INDEX 01 01:45:18
  TRACK 48 AUDIO
    TITLE "5:cjc150_3440"
    INDEX 01 01:47:31
  TRACK 49 AUDIO
    TITLE "8:cjc150_3441"
    INDEX 01 01:49:39
  TRACK 50 AUDIO
    TITLE "0:"
    INDEX 01 01:52:18
  TRACK 51 AUDIO
    TITLE "6:cjc150_3442"
    INDEX 01 01:53:02
  TRACK 52 AUDIO
    TITLE "6:cjc150_3443"
    INDEX 01 01:56:37
  TRACK 53 AUDIO
    TITLE "6:cjc150_3444"
    INDEX 01 02:00:29
  TRACK 54 AUDIO
    TITLE "6:cjc150_3445"
    INDEX 01 02:03:39
  TRACK 55 AUDIO
    TITLE "6:cjc150_3446"
    INDEX 01 02:06:46
  TRACK 56 AUDIO
    TITLE "6:cjc150_3447"
    INDEX 01 02:10:14
  TRACK 57 AUDIO
    TITLE "6:cjc150_3448"
    INDEX 01 02:14:41
  TRACK 58 AUDIO
    TITLE "6:cjc150_3449"
    INDEX 01 02:18:12
  TRACK 59 AUDIO
    TITLE "6:cjc150_3450"
    INDEX 01 02:21:55
  TRACK 60 AUDIO
    TITLE "6:cjc150_3451"
    INDEX 01 02:23:38
  TRACK 61 AUDIO
    TITLE "6:cjc150_3452"
    INDEX 01 02:26:37
  TRACK 62 AUDIO
    TITLE "6:cjc150_3453"
    INDEX 01 02:28:47
  TRACK 63 AUDIO
    TITLE "8:cjc150_3454"
    INDEX 01 02:30:17
  TRACK 64 AUDIO
    TITLE "0:"
    INDEX 01 02:31:71
  TRACK 65 AUDIO
    TITLE "7:cjc150_3455"
    INDEX 01 02:32:61
  TRACK 66 AUDIO
    TITLE "7:cjc150_3456"
    INDEX 01 02:40:33
  TRACK 67 AUDIO
    TITLE "0:"
    INDEX 01 02:48:05
